<?xml version="1.0" standalone="no"?>
<!DOCTYPE svg PUBLIC "-//W3C//DTD SVG 20010904//EN"
 "http://www.w3.org/TR/2001/REC-SVG-20010904/DTD/svg10.dtd">
<svg version="1.0" xmlns="http://www.w3.org/2000/svg"
 width="1653.000000pt" height="1653.000000pt" viewBox="0 0 1653.000000 1653.000000"
 preserveAspectRatio="xMidYMid meet">
<metadata>
Created by potrace 1.11, written by Peter Selinger 2001-2013
</metadata>
<g transform="translate(0.000000,1653.000000) scale(0.100000,-0.100000)"
fill="#000000" stroke="none">
<path d="M10817 16104 c-17 -9 -39 -13 -54 -9 -23 5 -175 -44 -196 -64 -4 -4
-9 -26 -11 -49 -6 -73 13 -791 25 -936 6 -76 8 -172 4 -214 l-7 -75 -141 8
c-78 5 -177 8 -219 6 -66 -2 -77 1 -82 16 -10 33 -37 455 -46 713 -5 140 -13
300 -19 355 -6 55 -10 107 -9 115 0 8 0 30 0 48 l-2 34 -50 -7 c-33 -4 -55 -3
-64 4 -10 9 -36 8 -102 -4 -49 -8 -92 -19 -97 -24 -20 -20 -27 -97 -28 -285 0
-226 12 -391 46 -616 20 -128 22 -171 15 -247 -4 -51 -7 -99 -6 -107 1 -18 -1
-19 -99 -11 -51 4 -109 2 -160 -7 l-80 -14 -1 -79 c-2 -121 11 -227 30 -240
14 -11 121 -23 251 -29 28 -1 49 -7 48 -12 0 -5 -4 -92 -8 -194 -10 -273 -32
-461 -70 -585 -29 -97 -42 -166 -50 -265 -6 -73 -5 -76 24 -107 21 -23 39 -33
60 -33 28 0 71 -8 158 -30 28 -7 39 -3 76 25 24 19 49 46 55 62 16 40 40 229
46 363 3 63 23 238 46 389 22 150 40 302 40 337 l0 64 98 -1 c53 0 133 4 177
11 44 6 94 10 110 7 30 -4 30 -4 27 -63 -1 -32 -9 -113 -16 -179 -8 -66 -17
-183 -21 -260 -3 -77 -10 -169 -15 -205 -6 -36 -17 -115 -25 -176 -8 -61 -24
-138 -34 -172 -22 -67 -45 -185 -60 -309 -10 -77 -9 -85 12 -118 23 -37 25
-38 132 -56 39 -6 83 -15 100 -20 36 -11 66 7 107 67 23 32 31 62 47 174 11
74 22 187 25 250 5 108 42 379 85 625 31 179 34 245 36 1025 1 668 0 757 -16
865 -10 66 -18 134 -19 150 0 45 -19 105 -33 105 -7 -1 -25 -8 -40 -16z"/>
<path d="M2320 16055 c-284 -40 -446 -100 -662 -247 -166 -113 -278 -243 -331
-386 -32 -86 -30 -217 5 -294 38 -81 82 -133 160 -184 119 -80 289 -133 503
-159 449 -54 563 -85 697 -190 78 -61 129 -129 168 -221 104 -250 72 -460
-105 -682 -92 -116 -226 -210 -345 -242 -195 -53 -443 67 -509 246 -50 132 0
260 169 438 l89 93 -3 106 c-1 59 -6 110 -10 114 -4 4 -17 8 -29 8 -20 0 -22
5 -22 50 0 36 -4 50 -15 53 -18 3 -137 -66 -200 -117 -252 -203 -360 -393
-360 -631 0 -147 41 -269 129 -388 144 -194 361 -317 606 -344 93 -11 113 -10
208 9 191 39 329 114 478 263 167 165 271 373 304 607 37 260 -1 455 -130 678
-57 99 -208 249 -310 309 -166 96 -292 133 -700 201 -266 44 -426 83 -441 106
-13 21 56 137 112 188 182 166 400 258 639 268 222 9 397 -53 437 -157 5 -13
16 -67 23 -119 14 -93 46 -206 84 -293 l19 -45 79 1 c44 1 93 -5 112 -12 43
-17 52 -9 80 73 24 68 27 167 10 310 -20 179 -71 289 -184 401 -172 170 -428
234 -755 189z"/>
<path d="M7459 15714 c-34 -14 -36 -17 -46 -87 -7 -44 -8 -94 -3 -127 13 -82
11 -291 -4 -405 l-12 -100 -13 70 c-69 362 -234 534 -591 616 -212 49 -593 32
-768 -34 -88 -33 -91 -34 -109 -16 -28 28 -241 41 -293 18 l-38 -17 -7 -77
c-4 -43 -4 -105 0 -139 4 -33 7 -113 6 -176 0 -63 -3 -291 -5 -507 l-3 -391
-47 -71 c-51 -76 -107 -127 -164 -147 -78 -28 -174 -10 -206 38 -25 38 -29
124 -12 248 9 63 20 214 25 335 12 266 23 346 66 490 44 146 75 268 75 297 0
12 -10 43 -23 67 -21 42 -26 45 -92 63 -38 11 -91 26 -117 34 -43 14 -49 14
-86 -5 -36 -18 -42 -27 -60 -88 -31 -102 -42 -159 -48 -242 -5 -84 -22 -213
-60 -461 -48 -315 -72 -636 -54 -715 31 -138 81 -218 184 -295 172 -126 349
-161 523 -102 88 30 93 29 93 -22 0 -41 22 -55 109 -72 46 -8 95 -13 109 -9
13 3 39 1 58 -5 24 -8 39 -9 47 -1 8 6 18 63 26 140 11 105 11 156 1 265 -9
105 -10 146 0 185 6 27 10 95 9 152 -2 57 3 182 10 276 10 132 10 197 2 273
-6 56 -11 123 -11 150 0 42 3 50 19 50 10 0 24 7 31 15 7 8 16 15 21 15 5 0 9
-73 9 -163 0 -124 4 -179 18 -232 16 -61 18 -111 17 -390 -2 -305 -3 -322 -23
-365 -12 -26 -22 -65 -22 -92 0 -40 4 -50 26 -64 14 -9 23 -22 20 -29 -11 -30
51 -63 176 -94 336 -84 602 -9 849 238 112 113 177 203 226 316 38 86 89 285
99 386 l8 74 8 -45 c10 -59 62 -157 102 -193 54 -50 242 -136 319 -146 94 -13
270 19 361 66 l29 15 -7 -34 c-22 -112 -14 -594 11 -619 12 -12 158 -38 218
-38 28 0 61 -2 74 -3 24 -3 25 1 38 82 16 111 17 233 2 345 -8 64 -9 141 -3
265 14 288 10 458 -15 615 -20 122 -22 161 -15 306 3 91 3 175 -1 187 -3 12
-22 33 -41 46 -33 22 -41 23 -152 18 -93 -3 -125 -9 -154 -25 l-38 -21 0 -75
c0 -42 5 -94 11 -116 27 -103 31 -144 33 -346 l3 -216 -61 -18 c-33 -10 -97
-33 -141 -52 -88 -36 -157 -42 -192 -18 -20 14 -21 22 -18 108 2 50 -1 167 -7
259 -9 131 -9 182 1 240 7 40 17 117 23 171 l12 98 -36 35 c-34 34 -39 36
-119 40 -46 2 -100 6 -119 8 -19 3 -51 -2 -71 -10z m-801 -360 c174 -35 299
-137 340 -276 30 -100 45 -258 40 -403 -5 -125 -15 -160 -70 -247 -37 -58
-146 -176 -194 -209 -109 -75 -284 -135 -355 -124 -42 7 -41 -10 -12 204 17
127 12 252 -14 361 -11 46 -16 126 -18 270 -2 143 -7 224 -18 267 -19 78 -24
85 -50 77 -12 -4 -47 -8 -77 -9 -30 -1 -73 -5 -95 -8 -32 -6 -19 3 64 44 57
28 122 54 145 59 70 14 233 11 314 -6z"/>
<path d="M4475 15700 c-22 -5 -107 -9 -190 -8 -349 3 -368 2 -470 -22 -86 -19
-242 -31 -280 -20 -5 1 -35 2 -66 1 -57 -1 -57 -1 -77 -43 -18 -40 -19 -51 -8
-169 7 -79 17 -134 26 -148 22 -33 91 -38 167 -11 39 14 97 22 176 27 l117 6
0 -47 c0 -26 8 -72 19 -104 23 -71 33 -164 37 -362 4 -213 11 -339 19 -376 4
-20 0 -61 -10 -105 -24 -103 -32 -450 -12 -468 20 -16 117 -41 202 -52 39 -5
79 -10 90 -11 17 -3 23 9 42 87 19 79 22 117 22 315 0 124 4 250 10 280 15 72
15 322 1 385 -24 105 -39 251 -32 310 4 33 5 89 2 124 l-5 63 60 -8 c33 -4 85
-8 115 -9 67 -1 289 20 311 29 21 9 29 59 35 207 4 114 3 117 -19 123 -39 11
-241 15 -282 6z"/>
<path d="M13815 15703 c-181 -17 -334 -66 -457 -149 l-79 -53 -64 49 c-105 79
-185 109 -360 135 -205 30 -315 15 -490 -70 -101 -48 -155 -84 -155 -104 0 -4
16 -21 35 -38 19 -17 35 -40 35 -50 0 -10 18 -35 40 -57 22 -21 40 -46 40 -55
1 -114 24 -381 39 -440 16 -69 20 -231 11 -471 -1 -8 -1 -81 0 -161 1 -117 -3
-161 -19 -224 -12 -43 -21 -102 -21 -131 0 -48 2 -54 33 -72 23 -15 61 -22
142 -28 136 -10 141 -10 183 23 l35 26 -6 139 c-4 76 -5 138 -3 138 3 0 15
-17 27 -37 13 -21 44 -62 70 -91 53 -58 74 -94 95 -163 18 -59 44 -84 81 -74
46 11 226 114 256 146 41 44 35 66 -36 146 -38 42 -81 104 -106 154 -23 46
-58 100 -78 120 l-35 37 88 83 c165 157 223 227 279 340 50 97 67 177 67 297
-1 78 2 102 12 102 8 0 19 7 26 15 7 8 16 15 21 15 5 0 9 -72 9 -160 0 -115 4
-175 16 -217 13 -47 16 -120 18 -398 1 -309 -1 -342 -16 -366 -10 -14 -21 -53
-24 -86 -6 -58 -5 -62 20 -78 14 -10 26 -26 26 -36 0 -64 322 -138 512 -117
87 9 218 51 281 89 26 16 50 29 53 29 2 0 28 17 57 39 77 57 200 184 256 266
219 316 256 856 81 1183 -129 242 -413 366 -825 360 -71 -1 -148 -3 -170 -5z
m363 -349 c115 -23 189 -63 258 -137 68 -72 98 -148 114 -289 15 -128 12 -326
-5 -384 -40 -137 -218 -328 -361 -389 -114 -49 -211 -71 -254 -58 l-26 8 15
110 c20 154 19 351 -4 445 -13 56 -18 126 -21 280 -3 261 -21 349 -67 334 -12
-4 -47 -8 -77 -9 -30 -1 -73 -5 -95 -8 -32 -6 -19 3 64 44 57 28 122 54 145
59 70 14 233 11 314 -6z m-1192 -50 c47 -22 104 -138 104 -211 0 -66 -36 -208
-65 -258 -49 -84 -156 -172 -215 -177 l-34 -3 -13 65 c-7 36 -17 166 -22 290
-6 153 -14 241 -24 274 l-16 49 125 -6 c84 -4 136 -12 160 -23z"/>
<path d="M11460 15646 c-73 -11 -75 -12 -87 -46 -7 -19 -12 -54 -12 -76 -1
-23 -7 -72 -15 -110 -22 -103 -37 -260 -35 -344 2 -51 -3 -90 -14 -120 -9 -25
-26 -97 -37 -160 -12 -63 -27 -131 -35 -151 -8 -21 -21 -79 -30 -130 -20 -119
-36 -191 -45 -204 -4 -5 -10 -26 -14 -46 -4 -21 -22 -67 -42 -103 -19 -36 -42
-98 -50 -137 -16 -69 -16 -70 6 -94 15 -16 63 -37 138 -60 103 -33 120 -36
154 -26 20 6 43 18 51 25 16 17 53 159 62 239 4 32 14 81 24 110 18 52 18 52
67 57 27 3 63 13 79 22 18 9 38 13 50 8 11 -4 23 -6 27 -4 4 3 40 6 81 9 l75
4 22 -62 c12 -34 31 -87 42 -117 11 -30 24 -81 28 -114 5 -32 25 -91 44 -132
l35 -74 48 0 c27 0 57 6 68 13 11 8 53 27 94 43 80 32 125 75 124 122 0 15
-16 59 -36 97 -19 39 -51 101 -70 138 -20 41 -45 115 -61 185 -35 151 -99 355
-146 462 -50 113 -99 292 -116 415 -11 87 -78 313 -99 333 -3 3 -20 0 -38 -7
-18 -8 -43 -14 -57 -15 -20 -1 -26 4 -28 27 -2 15 -6 27 -10 27 -87 6 -183 5
-242 -4z m209 -718 c11 -24 22 -65 26 -93 3 -27 13 -74 22 -103 8 -30 13 -54
11 -55 -18 -10 -111 -37 -115 -34 -2 3 0 31 6 63 6 32 11 80 11 108 0 58 11
156 17 156 2 0 12 -19 22 -42z"/>
<path d="M12694 12309 c-32 -17 -77 -40 -99 -51 -22 -12 -184 -71 -360 -131
l-320 -111 -118 0 c-93 -1 -120 -4 -127 -16 -13 -20 -12 -23 3 -44 9 -13 38
-20 113 -28 l101 -12 99 36 c54 20 155 52 224 72 237 70 405 127 474 162 l68
35 -6 -28 c-13 -51 -158 -292 -238 -395 l-29 -37 -95 65 c-54 37 -105 64 -120
64 -33 0 -74 -42 -74 -75 0 -41 15 -60 82 -103 95 -62 112 -77 103 -93 -5 -8
-49 -67 -97 -132 -93 -122 -117 -144 -257 -230 -90 -55 -110 -82 -95 -125 16
-47 66 -64 164 -57 48 4 111 2 145 -4 33 -6 161 -22 285 -36 384 -42 495 -67
638 -140 49 -25 95 -45 101 -45 25 0 68 30 80 56 11 24 10 31 -7 53 -10 14
-28 28 -38 29 -10 2 -30 14 -44 27 -62 57 -213 107 -420 140 -83 13 -548 65
-582 65 -7 0 4 17 24 38 19 20 72 90 117 155 46 64 87 115 92 112 4 -3 14 -25
21 -48 7 -23 18 -48 25 -55 7 -8 10 -25 6 -42 -4 -22 -1 -31 11 -36 33 -12 67
6 96 53 24 38 29 54 24 83 -8 47 -39 117 -69 156 l-25 33 84 129 c151 231 228
406 210 478 -8 32 -50 64 -84 64 -15 0 -54 -14 -86 -31z"/>
<path d="M7990 11679 c-47 -4 -101 -10 -121 -14 -23 -4 -39 -3 -43 4 -12 19
-48 12 -212 -43 -96 -32 -188 -56 -230 -60 -386 -38 -630 -112 -735 -223 -21
-21 -50 -65 -67 -98 -26 -53 -37 -64 -81 -84 -28 -14 -59 -34 -70 -45 -31 -33
-176 -341 -210 -446 -41 -128 -51 -185 -51 -299 0 -85 16 -195 35 -242 5 -14
-16 -17 -182 -23 -103 -4 -314 -9 -468 -10 -308 -4 -431 -17 -684 -76 -163
-38 -272 -89 -343 -162 -59 -61 -81 -102 -108 -204 -30 -110 -87 -261 -120
-316 -46 -75 -53 -117 -46 -278 6 -132 5 -155 -18 -261 -70 -320 -125 -762
-133 -1069 -5 -177 -3 -226 10 -276 19 -72 180 -410 226 -474 l33 -45 -99 -6
c-108 -6 -179 -27 -302 -88 -147 -74 -241 -166 -241 -235 0 -42 50 -126 100
-169 57 -48 171 -101 330 -152 74 -24 199 -64 278 -89 78 -25 183 -63 233 -83
77 -33 89 -41 84 -58 -5 -21 -57 -562 -75 -785 -20 -251 -27 -514 -19 -725 8
-221 21 -332 64 -530 66 -306 80 -539 71 -1250 -3 -297 -10 -695 -15 -885 -7
-276 -6 -351 4 -376 16 -39 84 -74 143 -74 48 0 130 30 175 64 19 15 74 35
137 50 133 34 174 51 210 93 26 30 30 41 30 96 0 34 5 333 11 664 10 464 10
668 0 895 -17 441 -38 610 -107 883 -34 131 -36 147 -30 245 18 316 18 414 2
483 -30 126 -21 468 24 907 27 270 23 257 74 264 22 3 155 8 295 12 l254 7 -6
-365 c-6 -332 -5 -367 10 -379 11 -10 67 -16 197 -20 220 -8 230 -11 222 -53
-104 -503 -92 -2385 20 -3156 8 -58 16 -112 17 -120 2 -18 -35 -16 -133 7 -40
9 -84 12 -116 8 l-50 -6 -12 333 c-7 183 -26 551 -43 818 -51 804 -52 1464 -3
1865 27 223 29 261 11 268 -31 12 -44 -20 -61 -155 -65 -528 -68 -994 -11
-1928 50 -822 63 -1201 45 -1235 -26 -48 11 -70 68 -41 52 26 94 27 206 4 61
-12 112 -23 114 -24 1 -1 12 -34 23 -75 11 -41 29 -89 40 -107 20 -35 27 -122
9 -122 -5 0 -19 -9 -30 -20 -17 -17 -20 -33 -20 -108 0 -49 5 -114 11 -146 7
-42 7 -62 0 -69 -18 -18 -13 -60 28 -201 58 -201 100 -275 181 -316 20 -10 53
-39 74 -64 61 -75 102 -88 203 -65 46 11 52 10 89 -14 74 -49 119 -59 259 -60
96 0 146 4 190 17 159 47 251 140 310 315 l21 64 22 -61 c34 -93 94 -173 207
-278 122 -113 172 -149 239 -169 58 -17 143 -19 182 -5 23 9 38 6 86 -15 80
-36 155 -43 215 -20 66 25 164 128 260 272 129 194 197 350 209 483 5 53 11
73 23 77 29 11 51 36 51 60 0 13 7 35 17 49 14 22 15 46 10 177 -15 348 -55
637 -113 807 l-36 105 6 145 c19 454 25 722 25 1230 1 585 -11 893 -44 1117
-24 162 -27 148 25 151 25 2 71 -4 103 -14 57 -17 57 -17 57 -56 0 -21 7 -100
16 -174 14 -122 14 -167 -1 -507 -20 -440 -17 -520 45 -1182 48 -514 89 -855
136 -1125 36 -206 57 -271 99 -309 53 -46 96 -54 264 -44 l146 8 0 25 0 25
-145 1 c-189 1 -184 0 -217 28 -35 29 -46 62 -78 238 -50 274 -88 583 -139
1133 -65 689 -67 743 -45 1271 10 246 10 325 0 430 -8 71 -14 147 -15 169 l-1
40 80 7 c44 4 100 9 125 12 25 2 57 7 71 11 l26 6 7 -153 c4 -84 11 -382 16
-663 5 -280 12 -532 15 -560 2 -27 9 -104 15 -170 22 -249 49 -397 121 -653
74 -265 100 -427 114 -718 3 -68 14 -143 27 -190 12 -44 22 -103 23 -132 2
-57 13 -76 41 -70 29 5 31 102 4 179 -13 39 -24 107 -30 192 -30 393 -46 497
-115 742 -117 414 -139 625 -155 1479 -5 292 -13 575 -16 628 l-7 97 27 10
c52 20 21 67 -37 56 -32 -6 -37 -4 -51 24 -24 45 -34 181 -42 549 -7 348 -10
364 -49 332 -12 -10 -15 -43 -15 -169 0 -112 -4 -161 -12 -170 -10 -9 -13 -80
-13 -285 l0 -274 -149 -7 c-141 -7 -150 -6 -177 14 -35 26 -63 27 -104 1 l-33
-20 -15 45 c-53 155 -236 368 -377 438 -98 48 -175 67 -278 67 -286 0 -538
-193 -651 -498 -15 -40 -32 -74 -37 -75 -5 -1 -41 50 -81 113 -110 175 -156
222 -277 281 -56 27 -117 59 -136 71 -32 21 -45 23 -165 21 -136 -2 -359 -35
-485 -72 -36 -10 -72 -20 -80 -22 -13 -3 -16 27 -21 216 -3 121 -9 228 -14
238 -17 40 -92 50 -125 17 -19 -19 -20 -33 -19 -192 0 -95 4 -226 7 -291 6
-102 5 -116 -8 -111 -8 4 -94 10 -190 13 l-175 6 0 88 c0 48 2 207 3 354 l2
266 323 -7 c177 -4 439 -11 582 -16 1211 -43 1919 -12 2452 105 87 20 141 25
241 25 112 0 140 4 208 26 95 31 222 43 448 44 l168 0 -6 -27 c-31 -147 -5
-1191 45 -1788 93 -1127 279 -2671 369 -3077 42 -188 47 -191 239 -199 120 -4
162 -10 239 -33 74 -22 107 -27 163 -24 90 5 118 29 130 115 13 92 -21 1478
-51 2078 -11 215 -22 514 -25 665 -10 504 -26 712 -105 1435 -27 248 -57 531
-65 630 -9 99 -20 192 -26 206 -6 14 -25 33 -42 41 l-32 15 35 8 c61 13 147
63 177 102 26 34 28 43 27 122 -2 105 -19 192 -44 224 -34 43 -150 63 -545 91
-352 26 -347 25 -341 44 3 10 8 55 12 102 3 47 17 119 29 160 33 106 34 114
45 319 8 149 14 193 31 230 27 61 56 193 123 556 100 544 147 883 149 1085 l2
125 -44 80 c-87 158 -270 374 -334 394 -47 14 -175 29 -412 46 -215 15 -749
45 -819 45 l-39 0 6 93 c4 50 16 121 27 155 24 75 25 154 5 274 -34 210 -139
545 -193 619 -16 22 -49 54 -73 73 -205 153 -260 190 -360 239 -121 58 -323
128 -442 152 -101 21 -247 31 -347 24z m370 -103 c228 -53 433 -144 592 -262
56 -43 122 -91 144 -108 58 -43 78 -76 124 -204 104 -291 153 -579 116 -681
-12 -33 -13 -31 -50 120 -50 205 -86 308 -161 464 -211 437 -553 638 -1138
671 -70 4 -126 9 -124 11 32 31 348 24 497 -11z m-350 -66 c398 -31 651 -128
846 -326 177 -179 293 -428 385 -829 58 -250 9 -428 -165 -600 -99 -99 -182
-155 -401 -275 -93 -51 -206 -115 -249 -143 -111 -71 -191 -87 -486 -94 -247
-6 -433 10 -556 48 -80 25 -261 105 -383 171 -128 68 -339 208 -405 269 -53
48 -53 49 -75 153 -13 58 -20 110 -16 115 3 6 1 20 -5 31 -20 37 -40 283 -29
352 32 195 159 414 378 648 100 107 103 110 242 179 171 86 323 175 410 242
l64 49 121 -6 c103 -6 123 -4 135 9 17 19 26 19 189 7z m-610 -40 c-22 -17
-113 -72 -220 -133 -33 -19 -32 -17 16 32 39 41 69 60 135 86 98 40 102 41 69
15z m-214 1 c-3 -4 -27 -16 -53 -26 -26 -10 -144 -63 -262 -117 -117 -54 -216
-97 -219 -94 -10 10 51 79 96 107 70 44 187 86 319 113 65 14 119 25 121 25 2
1 1 -3 -2 -8z m-180 -187 c-37 -36 -85 -73 -105 -81 -142 -59 -251 -124 -370
-220 l-35 -28 30 41 c16 22 40 63 53 91 23 51 25 52 135 99 61 26 165 74 231
106 66 32 122 58 125 58 3 -1 -26 -30 -64 -66z m-523 -235 c-29 -49 -48 -58
-24 -11 12 23 26 42 32 42 5 0 2 -14 -8 -31z m200 -106 c-42 -49 -97 -125
-150 -209 -11 -18 -12 -17 -12 5 -2 48 32 141 63 176 29 32 135 99 144 90 3
-2 -18 -30 -45 -62z m-268 -34 c-4 -23 -34 -89 -66 -148 -33 -58 -59 -110 -59
-115 0 -5 -2 -7 -5 -4 -3 3 2 24 10 48 18 52 116 260 122 260 3 0 2 -19 -2
-41z m-23 -336 c-3 -103 -8 -153 -23 -195 -11 -34 -19 -84 -19 -125 0 -69 41
-258 60 -277 5 -5 10 -18 10 -29 0 -17 -2 -17 -29 5 -37 29 -46 48 -71 151
-12 45 -32 116 -46 157 -25 74 -25 77 -10 149 13 60 115 301 128 301 2 0 2
-62 0 -137z m-392 -569 c85 -3 175 -2 200 3 l45 9 44 -61 c25 -33 79 -97 120
-143 65 -70 82 -97 117 -182 69 -166 143 -258 241 -302 61 -27 131 -29 147 -5
9 15 7 21 -8 33 -11 8 -32 14 -46 14 -69 0 -166 76 -219 171 l-24 44 59 -56
c51 -48 67 -57 119 -67 67 -13 86 -25 281 -175 70 -54 159 -113 198 -132 148
-73 385 -127 551 -127 173 1 271 30 449 136 119 71 181 90 333 106 169 18 190
27 312 142 128 122 237 239 278 299 17 25 58 94 91 154 l59 109 54 -2 c317
-14 980 -65 1124 -87 l90 -14 53 -58 c77 -84 153 -187 201 -272 39 -69 42 -80
43 -150 1 -176 -58 -554 -182 -1166 -69 -343 -84 -405 -110 -454 -27 -55 -40
-163 -40 -342 0 -166 -15 -263 -47 -300 -9 -11 -13 -47 -13 -122 l0 -107 -67
0 c-38 0 -185 7 -328 15 -149 8 -443 15 -690 15 -306 0 -426 3 -418 11 20 20
89 29 338 44 276 16 332 24 419 59 64 26 81 45 72 81 -9 36 -34 38 -101 7 -76
-36 -109 -40 -420 -52 -137 -5 -271 -14 -297 -21 -65 -15 -111 -48 -123 -87
-8 -27 -13 -32 -31 -28 -39 10 -299 8 -334 -3 -39 -12 -140 -15 -140 -4 0 4
12 45 27 92 51 166 31 338 -45 386 -15 10 -40 33 -57 51 -25 29 -45 39 -123
59 -51 14 -116 25 -143 25 -46 0 -49 1 -39 19 22 41 11 75 -43 142 -87 106
-121 158 -197 294 -74 134 -140 229 -171 246 -30 15 -78 10 -99 -11 -34 -34
-26 -74 38 -168 32 -48 73 -125 92 -172 53 -134 76 -175 142 -251 40 -47 75
-77 100 -87 21 -8 38 -18 38 -21 0 -3 -35 -22 -77 -41 -42 -19 -82 -41 -89
-47 -10 -10 -23 -6 -64 22 -69 47 -106 56 -240 62 -94 4 -151 0 -310 -23 -194
-29 -198 -29 -690 -29 -538 0 -546 1 -810 61 -233 52 -346 73 -435 80 -123 8
-119 6 -139 71 -11 32 -21 88 -24 125 -4 58 -1 72 19 105 39 63 68 131 114
268 58 176 157 541 153 568 -2 17 -10 22 -32 22 l-30 0 -63 -220 c-98 -345
-157 -505 -217 -595 -40 -60 -45 -129 -17 -240 25 -101 25 -97 2 -105 -30 -9
-46 -59 -31 -94 16 -39 45 -48 170 -55 123 -6 228 -23 436 -71 323 -74 330
-75 897 -75 492 0 519 1 687 25 97 14 225 26 288 26 101 1 119 -2 160 -23 86
-44 115 -123 87 -232 -18 -67 -44 -116 -89 -163 l-30 -33 -1467 0 -1466 0 -47
36 c-71 54 -125 136 -216 330 -80 169 -83 179 -91 272 -18 207 47 807 132
1206 27 128 28 148 23 285 l-6 146 44 85 c24 47 72 171 108 276 l65 192 75 45
c200 120 272 140 635 177 160 16 308 31 330 34 22 2 72 2 110 0 39 -2 140 -7
225 -10z m2907 -509 c-77 -74 -140 -128 -160 -134 -34 -11 -189 -32 -195 -26
-2 1 69 42 157 90 88 47 195 110 238 140 43 29 80 53 83 54 3 0 -52 -56 -123
-124z m-1364 -320 c165 -43 356 -66 401 -49 9 3 16 14 16 24 0 15 13 18 93 24
50 4 101 9 112 11 11 3 -12 -11 -51 -30 -101 -51 -195 -68 -329 -62 -163 9
-404 72 -512 134 -24 14 -43 26 -43 28 0 2 48 -10 108 -26 59 -16 151 -40 205
-54z m300 -1780 c-24 -32 -38 -32 -17 0 9 14 20 25 26 25 5 0 1 -11 -9 -25z
m416 -4 c16 -4 39 -31 67 -78 37 -59 45 -83 50 -141 l7 -69 -38 -41 c-81 -91
-194 -121 -448 -122 l-137 0 19 38 c35 69 52 144 50 227 l-1 80 53 58 53 57
151 -1 c82 -1 161 -4 174 -8z m66 -450 c-3 -6 -14 -11 -23 -11 -15 1 -15 2 2
15 21 16 32 13 21 -4z m-3713 -193 c35 -18 73 -41 86 -52 23 -21 37 -21 635
-27 502 -5 659 -10 872 -28 575 -47 905 -46 1047 4 40 14 118 41 173 59 55 18
119 42 142 54 40 21 52 22 331 19 l290 -2 -40 -43 c-41 -45 -88 -133 -88 -167
0 -165 219 -285 520 -285 189 0 337 52 392 139 15 25 28 55 28 68 0 28 -4 28
73 2 207 -70 937 -20 1269 88 66 21 88 34 150 91 l73 67 115 -7 c196 -12 521
-40 615 -52 l89 -11 9 -40 c4 -22 7 -56 5 -75 -3 -30 -9 -38 -48 -57 -93 -46
-202 -55 -825 -63 -575 -8 -632 -11 -712 -45 -28 -12 -68 -16 -157 -15 -99 0
-147 -5 -290 -34 -551 -112 -1131 -137 -2351 -101 -798 23 -811 23 -1225 8
-217 -7 -530 -15 -695 -16 l-300 -2 -80 36 c-78 36 -178 70 -480 164 -199 62
-335 132 -335 170 0 32 166 129 273 160 54 16 56 16 76 -4 30 -30 86 -28 114
4 20 22 29 25 104 25 73 0 90 -4 145 -32z m2468 21 c-56 -9 -314 -9 -435 0
-63 6 -4 8 195 8 172 0 267 -3 240 -8z m1864 -11 c3 -13 7 -57 10 -98 6 -78
-10 -144 -43 -184 -26 -30 -99 -68 -170 -88 -80 -22 -277 -24 -362 -4 -139 33
-239 103 -239 167 0 68 75 165 160 207 43 21 55 22 342 22 l298 0 4 -22z
m1228 -1 c125 -7 230 -16 233 -19 12 -12 -82 -58 -157 -77 -348 -89 -981 -128
-1147 -70 -34 12 -37 18 -46 123 l-7 69 449 -7 c246 -3 550 -12 675 -19z
m1110 -463 c-12 -8 -27 -24 -32 -34 -13 -23 9 -271 75 -866 68 -602 84 -813
95 -1219 6 -203 19 -557 30 -785 18 -372 37 -986 56 -1813 l7 -287 -28 0 c-15
0 -70 14 -122 30 -79 25 -109 30 -198 30 l-104 0 -10 38 c-67 249 -220 1463
-330 2607 -70 727 -86 1019 -97 1760 -5 327 -3 411 8 460 l15 60 119 2 c227 4
429 13 469 22 63 14 72 13 47 -5z m-6036 -266 c-11 -70 -44 -430 -56 -603 -13
-200 -13 -447 0 -500 26 -104 29 -181 14 -369 -16 -207 -11 -283 26 -416 53
-188 81 -390 101 -725 12 -200 5 -1327 -10 -1579 l-6 -110 -123 -31 c-87 -23
-136 -41 -168 -63 -24 -18 -56 -35 -71 -38 l-26 -7 6 229 c32 1084 32 1549 1
1874 -8 85 -32 243 -54 351 -47 236 -58 323 -66 539 -8 212 8 522 51 1002 19
210 35 403 35 429 l0 48 93 4 c50 1 130 4 176 5 l84 2 -7 -42z m3413 -529
c128 -44 250 -162 334 -323 26 -49 26 -50 7 -63 -29 -20 -24 -43 10 -56 22 -9
33 -21 40 -47 15 -56 38 -260 52 -455 16 -242 14 -1406 -4 -1702 -7 -120 -13
-276 -12 -348 0 -115 3 -138 26 -200 34 -90 53 -166 72 -290 20 -126 46 -417
46 -512 0 -71 -1 -73 -24 -73 -14 0 -38 -11 -54 -25 l-29 -24 -139 9 c-76 5
-292 25 -479 44 -187 19 -387 38 -444 42 -96 6 -106 9 -127 33 -16 18 -20 31
-13 43 13 24 26 533 17 679 -9 145 -34 263 -79 375 l-32 79 1 205 c0 214 5
300 48 770 20 228 26 367 31 700 4 334 8 417 19 426 21 17 34 61 34 117 0 29
9 88 20 132 90 359 391 564 679 464z m-1302 -121 c140 -70 150 -79 253 -243
35 -55 78 -119 97 -142 l34 -42 9 -158 c14 -267 -4 -816 -41 -1223 -27 -298
-33 -401 -33 -645 l-1 -290 37 -90 c65 -161 73 -227 71 -580 -2 -170 -5 -316
-8 -325 -5 -15 -14 -15 -68 -7 -34 5 -138 9 -232 10 -179 0 -284 -15 -419 -62
-49 -17 -84 -21 -198 -21 l-138 0 0 83 c0 71 -4 91 -29 143 -52 106 -83 258
-115 574 -80 773 -88 2252 -14 2774 9 63 16 84 35 100 16 14 26 36 30 63 5 37
10 44 43 57 88 35 364 82 499 85 59 1 73 -3 188 -61z m83 -3989 c151 -6 276
-12 277 -13 4 -4 -29 -190 -43 -236 -40 -137 -125 -240 -230 -279 -114 -43
-276 -37 -368 15 -42 23 -54 25 -142 23 -86 -3 -98 -1 -111 17 -24 30 -89 172
-112 244 -30 91 -21 112 74 173 69 43 82 47 138 48 34 0 71 4 82 9 28 12 119
12 435 -1z m1079 -114 c189 -19 399 -38 467 -41 80 -5 124 -11 124 -18 0 -6
-4 -48 -10 -94 -21 -186 -132 -300 -441 -452 l-124 -62 -80 5 c-70 3 -88 8
-145 42 -85 50 -132 95 -185 180 -97 155 -135 262 -151 419 l-7 69 104 -6 c57
-4 259 -22 448 -42z"/>
<path d="M9294 8402 c-24 -16 -20 -49 26 -230 60 -233 128 -442 190 -587 58
-133 64 -154 89 -275 31 -149 57 -196 94 -167 26 21 28 75 7 181 -27 133 -33
152 -92 279 -82 180 -140 349 -219 637 -41 153 -61 186 -95 162z"/>
<path d="M11185 11533 c-11 -3 -79 -23 -152 -44 -73 -22 -167 -44 -209 -48
-42 -5 -83 -15 -91 -23 -16 -16 -9 -44 14 -52 29 -12 179 14 313 54 123 37
190 49 190 34 0 -12 -26 -54 -108 -176 l-85 -128 -38 35 c-45 41 -81 45 -103
13 -9 -12 -16 -26 -16 -31 0 -4 21 -30 46 -57 l45 -49 -53 -86 c-104 -168
-105 -169 -84 -200 l18 -28 187 7 c186 7 335 -3 385 -25 13 -6 29 -22 35 -35
30 -66 111 -47 111 25 0 81 -62 116 -233 135 l-108 11 20 22 c12 12 21 28 21
35 0 31 -69 104 -154 164 -19 13 -15 20 66 142 48 70 101 158 119 195 28 57
31 69 21 91 -11 24 -16 26 -74 25 -35 -1 -72 -3 -83 -6z m-75 -595 c32 -39 60
-62 73 -63 11 0 22 -5 24 -11 3 -8 -35 -14 -117 -19 -67 -4 -123 -5 -126 -2
-6 5 79 157 88 157 3 0 30 -28 58 -62z"/>
<path d="M10265 10999 c-53 -25 -172 -57 -277 -74 -36 -6 -68 -27 -68 -45 0
-21 34 -40 73 -40 45 0 179 22 247 40 23 6 45 9 48 6 5 -6 -63 -112 -78 -121
-4 -2 -24 5 -46 15 -48 25 -55 25 -88 -1 -49 -38 -33 -87 48 -145 l29 -21 -17
-44 c-9 -24 -30 -62 -45 -84 -15 -22 -31 -49 -35 -59 -10 -27 12 -84 37 -98
28 -15 133 -12 316 7 179 19 222 19 247 0 42 -32 94 -5 94 48 0 61 -58 84
-232 94 -115 6 -118 7 -114 29 3 12 9 31 15 42 9 18 3 27 -50 76 l-60 56 44
73 c82 131 94 214 40 257 -34 26 -56 25 -128 -11z m20 -510 c4 -6 19 -7 36 -4
18 4 29 3 29 -4 0 -6 -19 -11 -45 -11 -33 0 -45 4 -45 15 0 17 16 20 25 4z"/>
<path d="M9164 6122 c-45 -7 -54 -33 -84 -229 -16 -103 -34 -218 -40 -255 -24
-138 -11 -198 44 -212 32 -8 72 8 86 34 6 12 16 49 21 82 6 34 23 93 39 131
34 79 37 103 14 135 -15 21 -15 33 1 138 17 113 17 116 -1 141 -22 29 -48 41
-80 35z"/>
</g>
</svg>
